<svg xmlns="http://www.w3.org/2000/svg" width="14" height="11.79" viewBox="0 0 14 11.79"><path d="M14 1.41a5.545 5.545 0 0 1-1.646.46A2.925 2.925 0 0 0 13.616.23a5.508 5.508 0 0 1-1.823.72A2.83 2.83 0 0 0 7.654.89a2.986 2.986 0 0 0-.834 2.09 3.141 3.141 0 0 0 .074.68A8.053 8.053 0 0 1 .974.56a3.027 3.027 0 0 0 .889 3.96 2.72 2.72 0 0 1-1.3-.37v.04A2.944 2.944 0 0 0 2.869 7.1a2.713 2.713 0 0 1-1.3.05 2.892 2.892 0 0 0 2.682 2.06 5.612 5.612 0 0 1-3.566 1.27.862.862 0 0 1-.686-.04 7.954 7.954 0 0 0 4.4 1.34 8.12 8.12 0 0 0 5.816-2.48 8.452 8.452 0 0 0 2.357-5.97c0-.13 0-.25-.009-.38A6.008 6.008 0 0 0 14 1.41z" fill="#868686" fill-rule="evenodd"/></svg>