<svg xmlns="http://www.w3.org/2000/svg" width="24.062" height="24" viewBox="0 0 24.062 24">
  <defs>
    <style>
      .cls-1 {
        fill: #868686;
        fill-rule: evenodd;
      }
    </style>
  </defs>
  <path id="people_icn" class="cls-1" d="M992.1,5636.23c-6.307-2.43-7.4-3.46-7.585-3.74v-0.73a8.018,8.018,0,0,0,1.617-2.98,2.551,2.551,0,0,0,.843-1.55,2.525,2.525,0,0,0-.4-1.76v-2.33c0-3.27-2.021-5.14-5.545-5.14-3.473,0-5.546,1.92-5.546,5.14v2.33a2.5,2.5,0,0,0-.4,1.75,2.552,2.552,0,0,0,.842,1.56,8.032,8.032,0,0,0,1.617,2.98v0.73c-0.208.32-1.362,1.34-7.584,3.74a1.525,1.525,0,0,0-.965,1.4v2.86a1.514,1.514,0,0,0,1.512,1.51h21.04a1.513,1.513,0,0,0,1.511-1.51v-2.86A1.515,1.515,0,0,0,992.1,5636.23Zm-0.455,4.26a0.111,0.111,0,0,1-.092.12H970.51a0.112,0.112,0,0,1-.093-0.12l0.068-2.97c6.983-2.7,8.189-3.85,8.451-4.69a0.645,0.645,0,0,0,.03-0.2v-1.14a0.687,0.687,0,0,0-.2-0.48,6.5,6.5,0,0,1-1.534-2.82,0.727,0.727,0,0,0-.27-0.38,1.157,1.157,0,0,1-.216-1.68,0.714,0.714,0,0,0,.154-0.44v-2.55c0-2.46,1.427-3.76,4.127-3.76,2.738,0,4.127,1.26,4.127,3.76v2.55a0.671,0.671,0,0,0,.153.43,1.184,1.184,0,0,1,.257.92,1.13,1.13,0,0,1-.473.77,0.738,0.738,0,0,0-.27.38,6.487,6.487,0,0,1-1.534,2.82,0.686,0.686,0,0,0-.2.48v1.14a0.676,0.676,0,0,0,.03.2c0.263,0.84,1.47,2,8.518,4.8v2.86Z" transform="translate(-969 -5618)"/>
</svg>
