<svg xmlns="http://www.w3.org/2000/svg" width="18.969" height="19" viewBox="0 0 18.969 19">
  <defs>
    <style>
      .cls-1 {
        fill: #fa9d4c;
        stroke: #fa9d4c;
        stroke-linejoin: round;
        stroke-width: 1px;
        fill-rule: evenodd;
      }
    </style>
  </defs>
  <path id="star4" class="cls-1" d="M188.777,2695.34a0.491,0.491,0,0,1,.934,0l1.9,5.63a0.5,0.5,0,0,0,.454.35l5.695,0.15a0.49,0.49,0,0,1,.458.36,0.506,0.506,0,0,1-.168.56l-4.528,3.64a0.531,0.531,0,0,0-.172.56l1.622,5.73a0.515,0.515,0,0,1-.185.56,0.468,0.468,0,0,1-.572.01l-4.685-3.38a0.457,0.457,0,0,0-.564,0l-4.685,3.38a0.467,0.467,0,0,1-.571-0.01,0.514,0.514,0,0,1-.185-0.56l1.622-5.73a0.531,0.531,0,0,0-.172-0.56l-4.528-3.64a0.5,0.5,0,0,1-.168-0.56,0.489,0.489,0,0,1,.458-0.36l5.694-.15a0.5,0.5,0,0,0,.455-0.35Z" transform="translate(-179.781 -2694.5)"/>
</svg>
