<svg xmlns="http://www.w3.org/2000/svg" width="14" height="11.79" viewBox="0 0 14 11.79">
  <defs>
    <style>
      .cls-1 {
        fill: #868686;
        fill-rule: evenodd;
      }
    </style>
  </defs>
  <path id="twitter_icn" class="cls-1" d="M840,8156.53a5.545,5.545,0,0,1-1.646.46,2.925,2.925,0,0,0,1.262-1.64,5.508,5.508,0,0,1-1.823.72,2.83,2.83,0,0,0-4.139-.06,2.986,2.986,0,0,0-.834,2.09,3.141,3.141,0,0,0,.074.68,8.053,8.053,0,0,1-5.92-3.1,3.027,3.027,0,0,0,.889,3.96,2.72,2.72,0,0,1-1.3-.37v0.04a2.944,2.944,0,0,0,2.306,2.91,2.713,2.713,0,0,1-1.3.05,2.892,2.892,0,0,0,2.682,2.06,5.612,5.612,0,0,1-3.566,1.27,0.862,0.862,0,0,1-.686-0.04,7.954,7.954,0,0,0,4.4,1.34,8.12,8.12,0,0,0,5.816-2.48,8.452,8.452,0,0,0,2.357-5.97c0-.13,0-0.25-0.009-0.38A6.008,6.008,0,0,0,840,8156.53Z" transform="translate(-826 -8155.12)"/>
</svg>
